<?xml version="1.0" encoding="utf-8"?>
<!-- Generator: Adobe Illustrator 17.0.0, SVG Export Plug-In . SVG Version: 6.00 Build 0)  -->
<!DOCTYPE svg PUBLIC "-//W3C//DTD SVG 1.1//EN" "http://www.w3.org/Graphics/SVG/1.1/DTD/svg11.dtd">
<svg version="1.1" id="Ebene_1" xmlns="http://www.w3.org/2000/svg" xmlns:xlink="http://www.w3.org/1999/xlink" x="0px" y="0px"
	 width="571px" height="315px" viewBox="0 0 571 315" enable-background="new 0 0 571 315" xml:space="preserve">
<path d="M4.939,153.492C56.137,103.085,106.925,53.082,157.39,3.397c12.665,12.522,26.158,25.862,40.293,39.838
	c-37.324,36.617-74.606,73.193-112.311,110.184c38.274,39.745,75.209,78.1,110.966,115.231
	c-13.173,14.222-26.129,28.208-39.434,42.571C106.017,258.403,55.879,206.363,4.939,153.492z"/>
<path d="M373.734,44.396c15.388-15.088,28.933-28.369,41.396-40.589C465.574,53.45,516.467,103.535,567.5,153.759
	c-50.654,52.577-100.788,104.613-151.678,157.434c-13.17-14.269-26.019-28.191-39.359-42.643
	c35.388-36.749,72.298-75.078,109.659-113.876C448.64,117.895,411.362,81.317,373.734,44.396z"/>
<path d="M313.319,9.172c0,64.484,0,128.716,0,193.262c-20.378,0-40.596,0-61.087,0c0-64.471,0-128.704,0-193.262
	C272.501,9.172,292.587,9.172,313.319,9.172z"/>
<path d="M313.195,310.539c-20.469,0-40.552,0-60.935,0c0-20.812,0-41.389,0-62.382c20.161,0,40.356,0,60.935,0
	C313.195,268.754,313.195,289.451,313.195,310.539z"/>
</svg>
